<?xml version="1.0" encoding="UTF-8"?>
<svg width="114px" height="140px" viewBox="0 0 114 140" version="1.1" xmlns="http://www.w3.org/2000/svg" xmlns:xlink="http://www.w3.org/1999/xlink">
    <!-- Generator: Sketch 42 (36781) - http://www.bohemiancoding.com/sketch -->
    <title>Favbook</title>
    <desc>Created with Sketch.</desc>
    <defs></defs>
    <g id="Old-App-Icon" stroke="none" stroke-width="1" fill="none" fill-rule="evenodd">
        <g id="Noteshare" transform="translate(-33.000000, -22.000000)">
            <g id="Favbook" transform="translate(33.000000, 22.000000)">
                <path d="M14.3897978,0.0785502634 C16.1903529,0.0909064146 18.3694725,0.040991126 19.811071,0.0785502294 C26.2231373,0.245608859 32.0760963,0.0785502588 32.0760963,0.0785502588 L32.076096,115.725684 L14.7102856,115.725684 C14.7102856,115.725684 -0.790258273,122.293298 13.9180934,132.21427 C15.7397372,133.442992 20.6124479,133.263009 31.1561381,133.263009 L103.829968,133.263009 C103.829968,133.263009 106.670473,133.800145 110.507496,129.78566 C112.0168,128.206551 112.115514,127.498051 112.421309,126.988891 C112.727104,126.479731 113.419499,124.194624 113.419499,123.154757 C113.419499,122.883052 113.839203,123.081466 113.895783,125.41444 C113.987417,129.192751 113.594888,136.095651 112.421309,137.192722 C110.523086,138.967194 108.735194,139.999996 106.478397,139.999996 C104.2216,139.999996 92.9282323,139.999997 92.9282323,139.999997 L12.7250365,139.999998 C12.7250365,139.999998 2.16538164,140.032911 0.666271275,130.674662 C-0.832839094,121.316414 0.666271275,9.43515455 0.666271275,9.43515455 C0.666271275,9.43515455 0.666271287,5.0649706 7.99264517,1.10364291 C9.8707878,0.0881421266 11.9569163,0.0618548273 14.3897978,0.0785502634 Z" id="Path-1" fill="#289F5D"></path>
                <path d="M30.0886208,0.138927965 L30.0886208,116.494485 L104.884035,116.494485 C104.884035,116.494485 112.157181,117.266322 113.494479,108.380868 C114.831778,99.4954145 112.309887,13.234869 112.309887,13.234869 C112.309887,13.234869 112.448918,0.064285713 102.17862,0.0642857143 C91.9083231,0.0642857156 30.0886208,0.138927965 30.0886208,0.138927965 Z" id="Path-3" fill="#3CB371"></path>
                <path d="M108.614436,113.193322 C110.763447,111.452258 113.575609,107.314286 113.575609,107.314286 C113.575609,107.314286 113.911259,120.793072 113.57561,123.280355 C113.239962,125.767639 112.636805,130.24769 105.632861,133.417873 C99.8143731,136.051485 22.3992415,134.385964 18.2152674,134.235875 C14.0312932,134.085786 11.655523,133.417873 11.655523,133.417873 C11.655523,133.417873 9.96619811,133.18717 7.73018215,130.147964 C5.49416618,127.108757 4.06986784,123.576838 8.50284078,118.87837 C9.37568795,117.953247 9.673093,117.560583 12.0726605,116.31962 C14.472228,115.078658 21.9501714,115.277883 23.2492617,115.277883 C25.1765188,115.277883 42.8825036,115.469883 56.3430601,115.469883 C76.7734027,115.469883 99.4377569,115.469883 99.4377569,115.469883 C99.4377569,115.469883 105.653879,115.591877 108.614436,113.193322 Z" id="Path-2" fill="#FFFFFF"></path>
            </g>
        </g>
    </g>
</svg>