<?xml version="1.0" encoding="UTF-8"?>
<svg width="26px" height="26px" viewBox="0 0 26 26" version="1.1" xmlns="http://www.w3.org/2000/svg" xmlns:xlink="http://www.w3.org/1999/xlink">
    <!-- Generator: Sketch 42 (36781) - http://www.bohemiancoding.com/sketch -->
    <title>noun_562222_cc</title>
    <desc>Created with Sketch.</desc>
    <defs></defs>
    <g id="Page-1" stroke="none" stroke-width="1" fill="none" fill-rule="evenodd">
        <g id="noun_562222_cc" transform="translate(0.000000, -1.000000)" fill-rule="nonzero" fill="#FFFFFF">
            <g id="Group" transform="translate(0.000000, 0.637800)">
                <path d="M13,0.3622 C5.8262217,0.3622 -5.2e-06,6.1884 0,13.3622 C-5.2e-06,20.536 5.8262217,26.3622 13,26.3622 C20.173778,26.3622 26.000005,20.536 26,13.3622 C26.000005,6.1885 20.173778,0.3622 13,0.3622 Z M13,1.3622 C19.633338,1.3622 25.000005,6.7289 25,13.3622 C25.000005,19.9956 19.633338,25.3622 13,25.3622 C6.3666621,25.3622 0.9999952,19.9956 1,13.3622 C0.9999952,6.7289 6.3666621,1.3622 13,1.3622 Z M14.9375,6.4774344 C14.604373,6.4771344 14.266562,6.5654534 13.964844,6.7391531 C13.362472,7.0831531 12.978122,7.715709 13.001953,8.399309 L13.001953,8.977434 L13.001953,9.977434 L13.001953,10.8622 L5.5019531,10.8622 C4.6797221,10.8622 4.0019531,11.5398 4.0019531,12.3622 L4.0019531,14.3622 C4.0019531,15.1846 4.6796017,15.8622 5.5019531,15.8622 L13.001953,15.8622 L13.001953,16.748919 L13.001953,17.748919 L13.001953,18.327044 C12.978133,19.010644 13.362784,19.643 13.964844,19.9872 C14.56828,20.3338 15.311306,20.341928 15.888672,19.97353 C15.907082,19.96168 15.924702,19.94863 15.941402,19.93447 L16.128902,19.776266 C16.137602,19.769366 16.146072,19.762226 16.154292,19.754786 L21.486323,14.582911 C22.170591,13.919211 22.169716,12.807658 21.486323,12.143458 L16.179683,6.9969736 C16.171483,6.9882136 16.163053,6.9797396 16.154293,6.9715826 C16.146093,6.9634826 16.137633,6.9556626 16.128903,6.9481456 L15.941403,6.7899425 C15.924703,6.7757805 15.907083,6.7627325 15.888673,6.7508795 C15.59999,6.5668795 15.270628,6.477742 14.937501,6.477442 L14.9375,6.4774344 Z M14.9277,7.481341 C15.081232,7.481516 15.226134,7.521621 15.343716,7.594622 L15.484341,7.713762 C15.574591,7.789592 15.68873,7.831092 15.806607,7.83095 L15.485105,7.716519 L20.789028,12.860247 C21.088576,13.150747 21.088629,13.575506 20.789028,13.866106 L15.470669,19.024309 L15.343716,19.131731 C15.108552,19.277931 14.761161,19.289659 14.462857,19.118061 C14.161256,18.945961 13.992237,18.638149 14.001919,18.360249 C14.002046,18.353749 14.002046,18.347229 14.001919,18.340719 L14.001919,17.746969 L14.001919,16.746969 L14.001919,15.36025 C14.001891,15.084119 13.77805,14.860278 13.501919,14.86025 L5.5019191,14.86025 C5.2162705,14.86025 5.0019191,14.64595 5.0019191,14.36025 L5.0019191,12.36025 C5.0019191,12.07435 5.2161502,11.86025 5.5019191,11.86025 L13.501919,11.86025 C13.77805,11.860222 14.001891,11.636381 14.001919,11.36025 L14.001919,9.975484 L14.001919,8.975484 L14.001919,8.381734 C14.002046,8.375234 14.002046,8.368714 14.001919,8.362204 C13.992219,8.084504 14.161569,7.778145 14.462857,7.606345 C14.612009,7.520645 14.774169,7.48117 14.9277,7.481345 L14.9277,7.481341 Z" id="Shape"></path>
            </g>
        </g>
    </g>
</svg>