<?xml version="1.0" encoding="UTF-8"?>
<svg width="100px" height="100px" viewBox="0 0 100 100" version="1.1" xmlns="http://www.w3.org/2000/svg" xmlns:xlink="http://www.w3.org/1999/xlink">
    <!-- Generator: Sketch 42 (36781) - http://www.bohemiancoding.com/sketch -->
    <title>Menu</title>
    <desc>Created with Sketch.</desc>
    <defs></defs>
    <g id="Page-1" stroke="none" stroke-width="1" fill="none" fill-rule="evenodd">
        <g id="Menu" fill-rule="nonzero" fill="#3CB371">
            <path d="M14.0000005,20 C11.7909005,20 10,21.79079 10,24 C10,26.2092 11.7909005,28 14.0000005,28 L86.0000025,28 C88.2091035,28 90.0000025,26.2092 90.0000025,24 C90.0000025,21.79079 88.2091035,20 86.0000025,20 L14.0000005,20 Z M14.0000005,46.00005 C11.7909005,46.00005 10,47.79074 10,50.00004 C10,52.20924 11.7909005,54.00004 14.0000005,54.00004 L86.0000025,54.00004 C88.2091035,54.00004 90.0000025,52.20924 90.0000025,50.00004 C90.0000025,47.79074 88.2091035,46.00005 86.0000025,46.00005 L14.0000005,46.00005 Z M14.0000005,72.00004 C11.7909005,72.00004 10,73.79084 10,76.00004 C10,78.20924 11.7909005,80.00004 14.0000005,80.00004 L86.0000025,80.00004 C88.2091035,80.00004 90.0000025,78.20924 90.0000025,76.00004 C90.0000025,73.79084 88.2091035,72.00004 86.0000025,72.00004 L14.0000005,72.00004 Z" id="Shape"></path>
        </g>
    </g>
</svg>