<?xml version="1.0" encoding="UTF-8"?>
<svg width="91px" height="90px" viewBox="0 0 91 90" version="1.1" xmlns="http://www.w3.org/2000/svg" xmlns:xlink="http://www.w3.org/1999/xlink">
    <!-- Generator: Sketch 42 (36781) - http://www.bohemiancoding.com/sketch -->
    <title>Shape</title>
    <desc>Created with Sketch.</desc>
    <defs></defs>
    <g id="Page-1" stroke="none" stroke-width="1" fill="none" fill-rule="evenodd">
        <g id="user" fill-rule="nonzero" fill="#3CB371">
            <path d="M45.4,0 C20.5,0 0.4,20.1 0.4,45 C0.4,69.9 20.5,90 45.4,90 C70.3,90 90.4,69.9 90.4,45 C90.4,20.1 70.2,0 45.4,0 Z M71.4,74 C68.9,70 65.1,67.1 60.6,65.8 L54.8,64.1 C52.8,63.5 51.8,61.4 52.4,59.4 C52.5,59 52.8,58.6 53,58.3 L57.2,53.6 C60,50.5 61.3,46.3 60.8,42.2 L60.1,36.5 C59.6,32.2 57.2,28.3 53.5,25.9 L53.4,25.9 C48.5,22.8 42.2,22.8 37.3,26.1 L37.3,26.1 C33.9,28.4 31.7,31.9 31.1,35.9 L30.2,41.9 C29.5,46.2 30.8,50.6 33.7,53.9 L37.7,58.3 C38,58.6 38.2,59 38.3,59.4 C39,61.3 37.9,63.5 35.9,64.1 L30.1,65.8 C25.6,67.1 21.8,70.1 19.3,74 C11.3,66.9 6.3,56.5 6.3,45 C6.3,23.5 23.8,6 45.3,6 C66.8,6 84.3,23.5 84.3,45 C84.4,56.5 79.3,66.9 71.4,74 Z" id="Shape"></path>
        </g>
    </g>
</svg>